<svg width="44" height="44" viewBox="0 0 44 44" fill="none" xmlns="http://www.w3.org/2000/svg">
    <path d="M44 22C44 9.84974 34.1503 0 22 0C9.84974 0 0 9.84974 0 22C0 34.1503 9.84974 44 22 44C34.1503 44 44 34.1503 44 22Z" fill="#EDEEF2"/>
    <path d="M44 22C44 9.84974 34.1503 0 22 0C9.84974 0 0 9.84974 0 22C0 34.1503 9.84974 44 22 44C34.1503 44 44 34.1503 44 22Z" fill="white"/>
    <path d="M29.6201 24.854C28.5239 24.8559 27.4344 24.6823 26.3931 24.34C26.1486 24.2607 25.8877 24.2467 25.6362 24.2993C25.3847 24.3519 25.1513 24.4694 24.9591 24.64L22.9241 26.1759C20.7337 25.0859 18.9586 23.3111 17.8681 21.1209L19.3591 19.139C19.5496 18.9489 19.6839 18.71 19.7475 18.4486C19.811 18.1871 19.8011 17.9132 19.7191 17.657C19.3757 16.6141 19.2015 15.5229 19.2031 14.4249C19.2017 14.0405 19.0483 13.6723 18.7762 13.4008C18.5041 13.1292 18.1355 12.9765 17.7511 12.976H14.4281C14.0431 12.9765 13.6741 13.1296 13.4019 13.4018C13.1298 13.674 12.9766 14.043 12.9761 14.428C12.98 18.8414 14.7348 23.0729 17.8551 26.1941C20.9755 29.3152 25.2067 31.0709 29.6201 31.076C29.8113 31.0762 30.0008 31.0387 30.1776 30.9657C30.3543 30.8926 30.515 30.7853 30.6502 30.6501C30.7855 30.5148 30.8927 30.3542 30.9658 30.1775C31.0389 30.0007 31.0763 29.8112 31.0761 29.6199V26.306C31.0758 26.115 31.0379 25.926 30.9646 25.7497C30.8913 25.5734 30.784 25.4132 30.6488 25.2784C30.5136 25.1436 30.3532 25.0367 30.1767 24.9639C30.0001 24.891 29.811 24.8537 29.6201 24.854Z" fill="#025275"/>
</svg>
