<svg width="44" height="44" viewBox="0 0 44 44" fill="none" xmlns="http://www.w3.org/2000/svg">
    <path d="M44 22C44 9.84974 34.1503 0 22 0C9.84974 0 0 9.84974 0 22C0 34.1503 9.84974 44 22 44C34.1503 44 44 34.1503 44 22Z" fill="#EDEEF2"/>
    <path d="M44 22C44 9.84974 34.1503 0 22 0C9.84974 0 0 9.84974 0 22C0 34.1503 9.84974 44 22 44C34.1503 44 44 34.1503 44 22Z" fill="#292929"/>
    <path d="M29.6199 24.854C28.5238 24.8559 27.4343 24.6824 26.393 24.34C26.1485 24.2608 25.8876 24.2468 25.6361 24.2994C25.3845 24.352 25.1511 24.4694 24.959 24.64L22.924 26.176C20.7336 25.0859 18.9585 23.3112 17.868 21.121L19.359 19.139C19.5494 18.949 19.6838 18.7101 19.7473 18.4486C19.8109 18.1872 19.801 17.9133 19.7189 17.657C19.3756 16.6141 19.2014 15.523 19.2029 14.425C19.2016 14.0406 19.0481 13.6724 18.776 13.4008C18.5039 13.1293 18.1354 12.9765 17.751 12.976H14.428C14.043 12.9765 13.674 13.1297 13.4018 13.4019C13.1296 13.6741 12.9765 14.0431 12.976 14.428C12.9799 18.8414 14.7346 23.073 17.855 26.1941C20.9754 29.3153 25.2065 31.071 29.6199 31.076C29.8112 31.0763 30.0007 31.0388 30.1775 30.9657C30.3542 30.8926 30.5148 30.7854 30.6501 30.6501C30.7853 30.5149 30.8926 30.3543 30.9657 30.1775C31.0387 30.0007 31.0762 29.8113 31.076 29.62V26.306C31.0757 26.1151 31.0378 25.926 30.9645 25.7497C30.8912 25.5734 30.7839 25.4133 30.6487 25.2785C30.5135 25.1436 30.353 25.0368 30.1765 24.9639C30 24.8911 29.8109 24.8537 29.6199 24.854Z" fill="#FFD600"/>
</svg>
