<svg width="44" height="44" viewBox="0 0 44 44" fill="none" xmlns="http://www.w3.org/2000/svg">
    <path d="M44 22C44 9.84974 34.1503 0 22 0C9.84974 0 0 9.84974 0 22C0 34.1503 9.84974 44 22 44C34.1503 44 44 34.1503 44 22Z" fill="#EDEEF2"/>
    <path d="M44 22C44 9.84974 34.1503 0 22 0C9.84974 0 0 9.84974 0 22C0 34.1503 9.84974 44 22 44C34.1503 44 44 34.1503 44 22Z" fill="white"/>
    <path d="M22.0123 10.6392C21.2956 10.6299 20.6369 11.0181 20.2911 11.6486L12.219 26.3405C11.8471 26.9985 11.8928 27.7743 12.3162 28.3943C12.7468 29.0258 13.7717 29.349 14.512 29.1725L20.2582 27.8009C20.8475 27.6601 21.2624 27.1328 21.2598 26.526L21.2344 18.3501C21.226 17.9314 21.5656 17.5918 21.9842 17.6002C22.3958 17.6015 22.7304 17.936 22.7388 18.3547L22.7578 26.5385C22.7589 27.1452 23.1757 27.6751 23.7658 27.8196L29.5349 29.2397C30.2167 29.4121 30.8973 29.2155 31.3783 28.7345C31.4349 28.6779 31.4986 28.6142 31.548 28.5505C32.0286 27.9275 32.0899 27.1117 31.7188 26.4152L23.7256 11.6734C23.3902 11.0409 22.729 10.6485 22.0123 10.6392Z" fill="#025275"/>
</svg>
