<svg width="44" height="44" viewBox="0 0 44 44" fill="none" xmlns="http://www.w3.org/2000/svg">
    <path d="M44 22C44 9.84974 34.1503 0 22 0C9.84974 0 0 9.84974 0 22C0 34.1503 9.84974 44 22 44C34.1503 44 44 34.1503 44 22Z" fill="#EDEEF2"/>
    <path d="M44 22C44 9.84974 34.1503 0 22 0C9.84974 0 0 9.84974 0 22C0 34.1503 9.84974 44 22 44C34.1503 44 44 34.1503 44 22Z" fill="white"/>
    <path d="M30.5812 29.552C32.0853 27.8111 32.8454 25.549 32.6978 23.2531C32.5502 20.9571 31.5068 18.811 29.7922 17.277C30.2146 18.7681 30.2859 20.3368 30.0005 21.86C29.715 23.3833 29.0805 24.8197 28.1468 26.0566C27.2131 27.2936 26.0056 28.2974 24.6188 28.9894C23.2321 29.6814 21.7039 30.0427 20.1542 30.045L17.7542 30.031C18.5669 30.8427 19.5316 31.4862 20.5932 31.9248C21.6549 32.3634 22.7925 32.5884 23.9412 32.587L32.0901 32.545C32.2137 32.5439 32.3341 32.5064 32.4364 32.437C32.5386 32.3677 32.618 32.2696 32.6646 32.1552C32.7112 32.0408 32.7229 31.9152 32.6983 31.7942C32.6737 31.6731 32.6138 31.5621 32.5262 31.475L30.5812 29.552Z" fill="#025275"/>
    <path d="M20.1541 28.795C22.1557 28.7948 24.097 28.1098 25.6556 26.854C27.2142 25.5981 28.2963 23.8468 28.7222 21.8911C29.1481 19.9353 28.8922 17.8927 27.9969 16.1024C27.1017 14.3122 25.6209 12.8821 23.8007 12.0496C21.9804 11.2171 19.9301 11.0323 17.9903 11.5259C16.0505 12.0195 14.3379 13.1618 13.137 14.7631C11.936 16.3644 11.319 18.3284 11.3883 20.3288C11.4576 22.3292 12.2092 24.2457 13.5181 25.76L11.5691 27.684C11.4815 27.7711 11.4216 27.8821 11.397 28.0032C11.3723 28.1242 11.384 28.2499 11.4307 28.3643C11.4773 28.4787 11.5567 28.5767 11.6589 28.6461C11.7611 28.7154 11.8816 28.753 12.0051 28.754L20.1541 28.796V28.795ZM16.4251 16.919H23.9251C24.0909 16.919 24.2498 16.9849 24.367 17.1021C24.4843 17.2193 24.5501 17.3783 24.5501 17.544C24.5501 17.7098 24.4843 17.8688 24.367 17.986C24.2498 18.1032 24.0909 18.169 23.9251 18.169H16.4251C16.2593 18.169 16.1004 18.1032 15.9832 17.986C15.866 17.8688 15.8001 17.7098 15.8001 17.544C15.8001 17.3783 15.866 17.2193 15.9832 17.1021C16.1004 16.9849 16.2593 16.919 16.4251 16.919ZM16.4251 19.419H23.9251C24.0909 19.419 24.2498 19.4849 24.367 19.6021C24.4843 19.7193 24.5501 19.8783 24.5501 20.044C24.5501 20.2098 24.4843 20.3688 24.367 20.486C24.2498 20.6032 24.0909 20.669 23.9251 20.669H16.4251C16.2593 20.669 16.1004 20.6032 15.9832 20.486C15.866 20.3688 15.8001 20.2098 15.8001 20.044C15.8001 19.8783 15.866 19.7193 15.9832 19.6021C16.1004 19.4849 16.2593 19.419 16.4251 19.419ZM15.8001 22.544C15.8001 22.3783 15.866 22.2193 15.9832 22.1021C16.1004 21.9849 16.2593 21.919 16.4251 21.919H23.9251C24.0909 21.919 24.2498 21.9849 24.367 22.1021C24.4843 22.2193 24.5501 22.3783 24.5501 22.544C24.5501 22.7098 24.4843 22.8688 24.367 22.986C24.2498 23.1032 24.0909 23.169 23.9251 23.169H16.4251C16.2593 23.169 16.1004 23.1032 15.9832 22.986C15.866 22.8688 15.8001 22.7098 15.8001 22.544Z" fill="#025275"/>
</svg>
