<svg width="44" height="44" viewBox="0 0 44 44" fill="none" xmlns="http://www.w3.org/2000/svg">
    <path d="M44 22C44 9.84974 34.1503 0 22 0C9.84974 0 0 9.84974 0 22C0 34.1503 9.84974 44 22 44C34.1503 44 44 34.1503 44 22Z" fill="#EDEEF2"/>
    <path d="M44 22C44 9.84974 34.1503 0 22 0C9.84974 0 0 9.84974 0 22C0 34.1503 9.84974 44 22 44C34.1503 44 44 34.1503 44 22Z" fill="#292929"/>
    <path d="M30.581 29.552C32.0851 27.8111 32.8453 25.549 32.6977 23.2531C32.5501 20.9571 31.5066 18.811 29.792 17.277C30.2145 18.7681 30.2858 20.3368 30.0004 21.86C29.7149 23.3833 29.0804 24.8197 28.1467 26.0566C27.213 27.2936 26.0054 28.2974 24.6187 28.9894C23.232 29.6814 21.7038 30.0427 20.154 30.045L17.754 30.031C18.5668 30.8427 19.5315 31.4862 20.5931 31.9248C21.6547 32.3634 22.7924 32.5884 23.941 32.587L32.09 32.545C32.2136 32.5439 32.334 32.5064 32.4362 32.437C32.5385 32.3677 32.6179 32.2696 32.6645 32.1552C32.7111 32.0408 32.7228 31.9152 32.6982 31.7942C32.6735 31.6731 32.6137 31.5621 32.526 31.475L30.581 29.552Z" fill="#FFD600"/>
    <path d="M20.154 28.795C22.1556 28.7948 24.0969 28.1098 25.6555 26.854C27.2141 25.5981 28.2962 23.8468 28.7221 21.8911C29.148 19.9353 28.8921 17.8927 27.9968 16.1024C27.1015 14.3122 25.6208 12.8821 23.8005 12.0496C21.9803 11.2171 19.93 11.0323 17.9902 11.5259C16.0504 12.0195 14.3378 13.1618 13.1369 14.7631C11.9359 16.3644 11.3189 18.3284 11.3882 20.3288C11.4575 22.3292 12.2091 24.2457 13.518 25.76L11.569 27.684C11.4814 27.7711 11.4215 27.8821 11.3968 28.0032C11.3722 28.1242 11.3839 28.2499 11.4305 28.3643C11.4771 28.4787 11.5566 28.5767 11.6588 28.6461C11.761 28.7154 11.8815 28.753 12.005 28.754L20.154 28.796V28.795ZM16.425 16.919H23.925C24.0907 16.919 24.2497 16.9849 24.3669 17.1021C24.4841 17.2193 24.55 17.3783 24.55 17.544C24.55 17.7098 24.4841 17.8688 24.3669 17.986C24.2497 18.1032 24.0907 18.169 23.925 18.169H16.425C16.2592 18.169 16.1003 18.1032 15.983 17.986C15.8658 17.8688 15.8 17.7098 15.8 17.544C15.8 17.3783 15.8658 17.2193 15.983 17.1021C16.1003 16.9849 16.2592 16.919 16.425 16.919ZM16.425 19.419H23.925C24.0907 19.419 24.2497 19.4849 24.3669 19.6021C24.4841 19.7193 24.55 19.8783 24.55 20.044C24.55 20.2098 24.4841 20.3688 24.3669 20.486C24.2497 20.6032 24.0907 20.669 23.925 20.669H16.425C16.2592 20.669 16.1003 20.6032 15.983 20.486C15.8658 20.3688 15.8 20.2098 15.8 20.044C15.8 19.8783 15.8658 19.7193 15.983 19.6021C16.1003 19.4849 16.2592 19.419 16.425 19.419ZM15.8 22.544C15.8 22.3783 15.8658 22.2193 15.983 22.1021C16.1003 21.9849 16.2592 21.919 16.425 21.919H23.925C24.0907 21.919 24.2497 21.9849 24.3669 22.1021C24.4841 22.2193 24.55 22.3783 24.55 22.544C24.55 22.7098 24.4841 22.8688 24.3669 22.986C24.2497 23.1032 24.0907 23.169 23.925 23.169H16.425C16.2592 23.169 16.1003 23.1032 15.983 22.986C15.8658 22.8688 15.8 22.7098 15.8 22.544Z" fill="#FFD600"/>
</svg>
