<svg width="24" height="22" viewBox="0 0 24 22" fill="none" xmlns="http://www.w3.org/2000/svg">
    <g clip-path="url(#clip0_84_11230)">
        <path d="M23.7223 14.2331L23.6023 13.8681L21.3141 13.3039C21.3284 13.0995 21.3344 12.8944 21.3344 12.687C21.3339 11.3865 21.0534 10.101 20.5115 8.91516C19.9695 7.72933 19.1784 6.67016 18.1904 5.80755L17.2583 6.84373C18.0977 7.57634 18.7697 8.47595 19.2301 9.48318C19.6905 10.4904 19.9288 11.5824 19.9292 12.687C19.9292 12.7784 19.9292 12.8706 19.9239 12.9612L18.4379 12.5948C18.4166 11.1556 17.899 9.76634 16.9701 8.6552L15.8856 9.53678C16.5292 10.3067 16.9221 11.2499 17.0131 12.2432L15.4984 11.8715C15.3364 11.2018 14.9794 10.5931 14.4713 10.1203L16.7738 2.20914L16.5135 1.92445C15.9352 1.31749 15.2367 0.833733 14.4612 0.503032C13.6857 0.17233 12.8496 0.00170898 12.0046 0.00170898C11.1595 0.00170898 10.3234 0.17233 9.54786 0.503032C8.77235 0.833733 8.0739 1.31749 7.49563 1.92445L7.23527 2.20914L7.8843 4.4391C6.74899 4.99222 5.73924 5.76617 4.91598 6.71424C4.09271 7.6623 3.47301 8.76482 3.09426 9.95527L4.43686 10.3663C5.0513 8.40008 6.43252 6.75418 8.2775 5.78971L8.70163 7.24884C8.14329 7.57772 7.63872 7.98798 7.20508 8.46566L8.25335 9.38811C8.50791 9.10754 8.7943 8.85664 9.10691 8.64034L9.53784 10.1203C9.03241 10.5906 8.67661 11.1954 8.51371 11.8611L6.99754 12.2328C7.04922 11.6628 7.20251 11.1062 7.45036 10.5886L6.17719 10.0006C5.79185 10.8085 5.58601 11.6881 5.57343 12.5807L0.406046 13.8406L0.285295 14.2056C0.0399504 15.0014 -0.0372935 15.8384 0.0583233 16.6647C0.15394 17.4911 0.420391 18.2895 0.841253 19.0106C1.26212 19.7317 1.82847 20.3602 2.5054 20.8575C3.18233 21.3547 3.9555 21.7102 4.77723 21.9019L5.15458 21.9822L6.79679 20.3142C7.83076 20.9969 8.99265 21.4696 10.2144 21.7046C11.4362 21.9395 12.6932 21.9321 13.912 21.6826L13.6253 20.3275C13.0907 20.4367 12.5463 20.4915 12.0004 20.4911C10.5129 20.4915 9.05567 20.0776 7.79676 19.2973L8.86012 18.2173C9.81895 18.7479 10.9006 19.0259 12.0004 19.0245V17.6427C11.2687 17.6437 10.5457 17.4861 9.88273 17.1811L10.9687 16.0772C11.6387 16.2739 12.3523 16.2739 13.0223 16.0772L18.8206 22.0007L19.1979 21.9212C20.0208 21.7321 20.7956 21.3789 21.4745 20.8833C22.1534 20.3878 22.722 19.7605 23.1452 19.0402C23.5683 18.3198 23.8371 17.5217 23.935 16.695C24.0328 15.8684 23.9576 15.0307 23.714 14.2338L23.7223 14.2331ZM14.312 15.3941C14.9572 14.862 15.3921 14.1235 15.5407 13.3076L22.4838 15.0173C22.721 16.1548 22.5258 17.3386 21.9354 18.3438C21.345 19.349 20.4004 20.1057 19.2809 20.4702L14.312 15.3941ZM8.80654 2.58303C9.68744 1.8111 10.8255 1.38464 12.0046 1.38464C13.1836 1.38464 14.3217 1.8111 15.2026 2.58303L13.2298 9.36209C12.4383 9.07884 11.5708 9.07884 10.7793 9.36209L8.80654 2.58303ZM4.70553 20.4539C3.58727 20.0862 2.64495 19.327 2.05734 18.3203C1.46973 17.3137 1.27771 16.1296 1.51771 14.9927L8.46844 13.298C8.61425 14.1144 9.04704 14.8544 9.69104 15.3882L4.70553 20.4539ZM9.81934 12.6877C9.81859 12.2612 9.94631 11.8441 10.1863 11.4891C10.4264 11.1341 10.7679 10.8572 11.1678 10.6935C11.5676 10.5298 12.0078 10.4866 12.4326 10.5693C12.8574 10.6521 13.2477 10.8571 13.5542 11.1584C13.8607 11.4597 14.0695 11.8438 14.1542 12.2621C14.239 12.6803 14.1959 13.1139 14.0303 13.508C13.8648 13.9022 13.5843 14.239 13.2243 14.4761C12.8643 14.7131 12.441 14.8396 12.0079 14.8396C11.4281 14.8396 10.872 14.613 10.4617 14.2096C10.0514 13.8061 9.82034 13.2588 9.81934 12.6877Z" fill="#32ABE0"/>
    </g>
    <defs>
        <clipPath id="clip0_84_11230">
            <rect width="24" height="22" fill="white"/>
        </clipPath>
    </defs>
</svg>
