<svg width="28" height="28" viewBox="0 0 28 28" fill="none" xmlns="http://www.w3.org/2000/svg">
    <path fill-rule="evenodd" clip-rule="evenodd" d="M15.1667 14C15.1667 14.6451 14.644 15.1666 14 15.1666C13.356 15.1666 12.8334 14.6451 12.8334 14V2.33329C12.8334 1.68813 13.356 1.16663 14 1.16663C14.644 1.16663 15.1667 1.68813 15.1667 2.33329V14ZM17.7788 4.13148C18.0739 3.55864 18.7786 3.33581 19.3503 3.62981C23.2458 5.64464 25.6666 9.61714 25.6666 14.0003C25.6666 20.4321 20.4329 25.667 13.9999 25.667C7.56692 25.667 2.33325 20.4321 2.33325 14.0003C2.33325 9.61714 4.75409 5.64464 8.65075 3.62981C9.22125 3.33464 9.92592 3.55748 10.2223 4.13148C10.5186 4.70314 10.2934 5.40664 9.72175 5.70298C6.60325 7.31414 4.66659 10.4933 4.66659 14.0003C4.66659 19.1465 8.85375 23.3336 13.9999 23.3336C19.1461 23.3336 23.3333 19.1465 23.3333 14.0003C23.3333 10.4933 21.3966 7.31414 18.2793 5.70298C17.7064 5.40664 17.4824 4.70314 17.7788 4.13148Z" fill="#292929"/>
    <mask id="mask0_73_7984" style="mask-type:alpha" maskUnits="userSpaceOnUse" x="2" y="1" width="24" height="25">
        <path fill-rule="evenodd" clip-rule="evenodd" d="M15.1667 14C15.1667 14.6451 14.644 15.1666 14 15.1666C13.356 15.1666 12.8334 14.6451 12.8334 14V2.33329C12.8334 1.68813 13.356 1.16663 14 1.16663C14.644 1.16663 15.1667 1.68813 15.1667 2.33329V14ZM17.7788 4.13148C18.0739 3.55864 18.7786 3.33581 19.3503 3.62981C23.2458 5.64464 25.6666 9.61714 25.6666 14.0003C25.6666 20.4321 20.4329 25.667 13.9999 25.667C7.56692 25.667 2.33325 20.4321 2.33325 14.0003C2.33325 9.61714 4.75409 5.64464 8.65075 3.62981C9.22125 3.33464 9.92592 3.55748 10.2223 4.13148C10.5186 4.70314 10.2934 5.40664 9.72175 5.70298C6.60325 7.31414 4.66659 10.4933 4.66659 14.0003C4.66659 19.1465 8.85375 23.3336 13.9999 23.3336C19.1461 23.3336 23.3333 19.1465 23.3333 14.0003C23.3333 10.4933 21.3966 7.31414 18.2793 5.70298C17.7064 5.40664 17.4824 4.70314 17.7788 4.13148Z" fill="white"/>
    </mask>
    <g mask="url(#mask0_73_7984)">
    </g>
</svg>
