<svg width="24" height="24" viewBox="0 0 24 24" fill="none" xmlns="http://www.w3.org/2000/svg">
    <path fill-rule="evenodd" clip-rule="evenodd" d="M20.029 6.54353C19.5024 5.62961 18.3354 5.31432 17.4203 5.83872C16.9846 6.09535 16.4648 6.16816 15.9754 6.04109C15.4861 5.91403 15.0673 5.59752 14.8116 5.16138C14.647 4.88415 14.5586 4.5684 14.5553 4.24604C14.5701 3.72923 14.3751 3.22841 14.0148 2.85767C13.6544 2.48694 13.1593 2.27787 12.6422 2.27808H11.3882C10.8817 2.27807 10.396 2.47992 10.0387 2.83895C9.68141 3.19798 9.4819 3.6846 9.48434 4.19112C9.46932 5.23693 8.61721 6.07682 7.57129 6.07671C7.24894 6.07336 6.93318 5.98495 6.65596 5.82041C5.74079 5.29602 4.57384 5.6113 4.04727 6.52522L3.37907 7.62362C2.85314 8.5364 3.16413 9.70261 4.07473 10.2323C4.66663 10.574 5.03126 11.2056 5.03126 11.8891C5.03126 12.5725 4.66663 13.2041 4.07473 13.5458C3.16528 14.0719 2.85395 15.2353 3.37907 16.1454L4.01065 17.2346C4.25737 17.6798 4.67133 18.0083 5.16092 18.1474C5.65051 18.2866 6.17537 18.2249 6.61935 17.976C7.05581 17.7213 7.57592 17.6516 8.06407 17.7822C8.55222 17.9128 8.96796 18.233 9.21889 18.6717C9.38342 18.9489 9.47184 19.2647 9.47518 19.587C9.47518 20.6436 10.3317 21.5 11.3882 21.5H12.6422C13.6952 21.5001 14.5502 20.6491 14.5553 19.5962C14.5528 19.088 14.7536 18.6 15.1129 18.2407C15.4722 17.8814 15.9602 17.6807 16.4683 17.6831C16.7899 17.6917 17.1044 17.7798 17.3836 17.9394C18.2964 18.4653 19.4626 18.1544 19.9923 17.2438L20.6514 16.1454C20.9065 15.7075 20.9765 15.186 20.8459 14.6964C20.7154 14.2067 20.395 13.7894 19.9557 13.5367C19.5165 13.284 19.1961 12.8666 19.0655 12.3769C18.935 11.8873 19.005 11.3658 19.2601 10.928C19.426 10.6383 19.6661 10.3982 19.9557 10.2323C20.8609 9.7029 21.1711 8.5435 20.6514 7.63277L20.029 6.54353Z" stroke="white" stroke-linecap="round" stroke-linejoin="round"/>
    <circle cx="12" cy="12" r="3" stroke="white" stroke-linecap="round" stroke-linejoin="round"/>
</svg>
