<svg width="15" height="15" viewBox="0 0 15 15" fill="none" xmlns="http://www.w3.org/2000/svg">
    <path d="M14.9605 5.43278C14.9126 5.28411 14.822 5.15284 14.7 5.05533C14.578 4.95782 14.4299 4.89839 14.2744 4.88445L9.94469 4.49138L8.23291 0.484176C8.17158 0.340519 8.0694 0.21804 7.93905 0.131962C7.80871 0.0458838 7.65595 0 7.49974 0C7.34354 0 7.19078 0.0458838 7.06044 0.131962C6.93009 0.21804 6.82791 0.340519 6.76658 0.484176L5.05479 4.49053L0.72471 4.8836C0.569312 4.89794 0.421527 4.95752 0.299644 5.05499C0.177762 5.15245 0.0871297 5.28351 0.0389628 5.43195C-0.0092042 5.58039 -0.0127918 5.73969 0.0286437 5.89015C0.0700792 6.04061 0.154719 6.17562 0.27209 6.27847L3.54464 9.1486L2.57985 13.3996C2.54465 13.5518 2.55504 13.7111 2.60974 13.8575C2.66444 14.0039 2.76103 14.1309 2.88746 14.2228C3.01389 14.3146 3.16456 14.3672 3.32069 14.374C3.47682 14.3808 3.63149 14.3415 3.76542 14.261L7.49996 12.0289L11.2332 14.261C11.3672 14.3411 11.5219 14.3802 11.6779 14.3732C11.8339 14.3663 11.9844 14.3137 12.1108 14.2219C12.2372 14.1302 12.3338 14.0033 12.3887 13.8571C12.4436 13.7109 12.4544 13.5518 12.4196 13.3996L11.4544 9.1486L14.727 6.27889C14.8447 6.1761 14.9296 6.04099 14.9712 5.89034C15.0128 5.73969 15.0092 5.58013 14.9609 5.4315L14.9605 5.43278Z" fill="#FFBC36"/>
</svg>
