<svg width="30" height="38" viewBox="0 0 30 38" fill="none" xmlns="http://www.w3.org/2000/svg">
    <path fill-rule="evenodd" clip-rule="evenodd" d="M29.9995 20.4683C29.9995 26.3489 28.7559 30.7218 26.2689 33.5871C23.7819 36.4524 19.9465 37.8802 14.7627 37.8704C9.92451 37.8704 6.25372 36.4426 3.75039 33.5871C1.24706 30.7316 -0.00295796 26.4255 0.000303002 20.6688V1.35088C-0.00545353 1.14245 0.0710068 0.940155 0.213169 0.78762C0.355331 0.635086 0.551792 0.544556 0.760112 0.535645H9.52553C9.73385 0.544556 9.93031 0.635086 10.0725 0.78762C10.2146 0.940155 10.2911 1.14245 10.2853 1.35088V21.0797C10.1724 22.9706 10.5958 24.8549 11.5066 26.5157C11.8673 27.1174 12.3824 27.6115 12.9986 27.9466C13.6147 28.2818 14.3095 28.4459 15.0105 28.4218C15.699 28.4541 16.384 28.3055 16.9973 27.9908C17.6106 27.6762 18.1308 27.2064 18.5062 26.6283C19.4098 25.0162 19.8262 23.1765 19.7047 21.3324V17.6362H29.9979L29.9995 20.4683Z" fill="#2D4CA9"/>
    <path fill-rule="evenodd" clip-rule="evenodd" d="M29.2039 15.4904H19.7063V1.3917C19.6988 1.17248 19.7782 0.959218 19.9272 0.798279C20.0763 0.637341 20.2829 0.541804 20.502 0.532471H21.9221C21.841 2.75782 22.6453 4.92458 24.1587 6.5581C25.6721 8.19162 27.7712 9.15864 29.9963 9.24734V15.4904H29.2039Z" fill="#2D4CA9"/>
    <path fill-rule="evenodd" clip-rule="evenodd" d="M23.9472 0.532471H29.2039C29.423 0.541804 29.6295 0.637341 29.7786 0.798279C29.9276 0.959218 30.007 1.17248 29.9995 1.3917V7.07718C28.3308 7.01014 26.7567 6.28434 25.6223 5.05878C24.4878 3.83322 23.8854 2.20784 23.9472 0.538939V0.532471Z" fill="#EB6E00"/>
</svg>
