<svg width="26" height="17" viewBox="0 0 26 17" fill="none" xmlns="http://www.w3.org/2000/svg">
    <path d="M22.6 0H3.07C2.38924 0.00105539 1.73661 0.271747 1.25496 0.752838C0.773307 1.23393 0.501851 1.88624 0.5 2.567L0.5 13.879C0.501058 14.5603 0.772165 15.2134 1.2539 15.6951C1.73564 16.1768 2.38872 16.4479 3.07 16.449H22.6C23.2813 16.4479 23.9344 16.1768 24.4161 15.6951C24.8978 15.2134 25.1689 14.5603 25.17 13.879V2.567C25.1681 1.88624 24.8967 1.23393 24.415 0.752838C23.9334 0.271747 23.2808 0.00105539 22.6 0ZM24.142 13.879C24.1415 14.2878 23.9788 14.6797 23.6898 14.9688C23.4007 15.2578 23.0088 15.4205 22.6 15.421H3.07C2.6612 15.4205 2.26929 15.2578 1.98023 14.9688C1.69116 14.6797 1.52853 14.2878 1.528 13.879V2.567C1.52932 2.15872 1.6923 1.76758 1.98128 1.47916C2.27026 1.19075 2.66172 1.02853 3.07 1.028H22.6C23.009 1.02747 23.4015 1.18922 23.6913 1.47775C23.9811 1.76629 24.1447 2.15803 24.146 2.567V13.879H24.142Z" fill="white"/>
    <path d="M24.66 3.08398H1.014C0.877679 3.08398 0.746941 3.13815 0.650547 3.23454C0.554153 3.33094 0.5 3.46167 0.5 3.59799V6.68199C0.5 6.81831 0.554153 6.94905 0.650547 7.04544C0.746941 7.14183 0.877679 7.196 1.014 7.196H24.66C24.7963 7.196 24.9271 7.14183 25.0235 7.04544C25.1198 6.94905 25.174 6.81831 25.174 6.68199V3.59799C25.174 3.46167 25.1198 3.33094 25.0235 3.23454C24.9271 3.13815 24.7963 3.08398 24.66 3.08398ZM24.146 6.168H1.528V4.11198H24.146V6.168Z" fill="white"/>
    <path d="M10.267 10.2812H4.09798C3.96166 10.2812 3.83093 10.3354 3.73454 10.4318C3.63814 10.5282 3.58398 10.6589 3.58398 10.7953C3.58398 10.9316 3.63814 11.0623 3.73454 11.1587C3.83093 11.2551 3.96166 11.3093 4.09798 11.3093H10.267C10.4033 11.3093 10.534 11.2551 10.6304 11.1587C10.7268 11.0623 10.781 10.9316 10.781 10.7953C10.781 10.6589 10.7268 10.5282 10.6304 10.4318C10.534 10.3354 10.4033 10.2812 10.267 10.2812Z" fill="white"/>
    <path d="M10.267 12.3369H4.09798C3.96166 12.3369 3.83093 12.3911 3.73454 12.4875C3.63814 12.5839 3.58398 12.7146 3.58398 12.8509C3.58398 12.9872 3.63814 13.118 3.73454 13.2144C3.83093 13.3107 3.96166 13.3649 4.09798 13.3649H10.267C10.4033 13.3649 10.534 13.3107 10.6304 13.2144C10.7268 13.118 10.781 12.9872 10.781 12.8509C10.781 12.7146 10.7268 12.5839 10.6304 12.4875C10.534 12.3911 10.4033 12.3369 10.267 12.3369Z" fill="white"/>
    <path d="M20.548 9.25293H19.5201C19.1112 9.25346 18.7193 9.41607 18.4303 9.70514C18.1412 9.99421 17.9786 10.3861 17.978 10.7949V11.8199C17.9786 12.2287 18.1412 12.6206 18.4303 12.9097C18.7193 13.1988 19.1112 13.3614 19.5201 13.3619H20.548C20.9568 13.3614 21.3488 13.1988 21.6378 12.9097C21.9269 12.6206 22.0895 12.2287 22.09 11.8199V10.7919C22.0887 10.3837 21.9257 9.99249 21.6367 9.70407C21.3478 9.41565 20.9563 9.25346 20.548 9.25293ZM21.062 11.8229C21.062 11.9593 21.0079 12.09 20.9115 12.1864C20.8151 12.2828 20.6844 12.3369 20.548 12.3369H19.5201C19.3837 12.3369 19.253 12.2828 19.1566 12.1864C19.0602 12.09 19.006 11.9593 19.006 11.8229V10.7949C19.006 10.6586 19.0602 10.5279 19.1566 10.4315C19.253 10.3351 19.3837 10.2809 19.5201 10.2809H20.548C20.6844 10.2809 20.8151 10.3351 20.9115 10.4315C21.0079 10.5279 21.062 10.6586 21.062 10.7949V11.8229Z" fill="white"/>
</svg>
